<svg xmlns="http://www.w3.org/2000/svg" viewBox="0 0 248 110">
  <g fill="none" stroke="#5b23d4" stroke-linejoin="round" stroke-linecap="round">
    <polygon points="50,56 124,74 198,56 124,38" fill="#33ddd6" stroke-width="4"/>
    <polygon points="50,56 50,68 124,86 124,74" fill="#27d1c9" stroke-width="4"/>
    <polygon points="124,74 124,86 198,68 198,56" fill="#20c6be" stroke-width="4"/>

    <polygon points="42,24 74,32 74,52 42,44" fill="#ffffff" stroke-width="4"/>
    <polygon points="74,32 104,40 104,58 74,50" fill="#ffffff" stroke-width="4"/>
    <polygon points="106,40 136,48 136,66 106,58" fill="#ffffff" stroke-width="4"/>

    <polygon points="44,18 76,26 76,48 44,40" fill="#40ddd6" stroke-width="4"/>
    <polygon points="78,26 110,34 110,56 78,48" fill="#40ddd6" stroke-width="4"/>
    <polygon points="112,34 144,42 144,64 112,56" fill="#40ddd6" stroke-width="4"/>

    <line x1="76" y1="26" x2="76" y2="48" stroke-width="3.5"/>
    <line x1="110" y1="34" x2="110" y2="56" stroke-width="3.5"/>
    <line x1="74" y1="32" x2="74" y2="50" stroke-width="3.5"/>
    <line x1="104" y1="40" x2="104" y2="58" stroke-width="3.5"/>

    <polygon points="30,20 42,23 42,60 30,57" fill="#5b23d4" stroke-width="4"/>
    <polygon points="42,23 54,20 54,57 42,60" fill="#33ddd6" stroke-width="4"/>
    <polygon points="42,23 74,31 74,43 42,35" fill="#ffffff" stroke-width="4"/>
    <polygon points="42,35 54,32 54,57 42,60" fill="#5b23d4" stroke-width="4"/>

    <polygon points="144,42 176,50 176,62 144,54" fill="#ffffff" stroke-width="4"/>
    <polygon points="176,50 188,47 188,84 176,87" fill="#33ddd6" stroke-width="4"/>
    <polygon points="188,47 206,43 206,80 188,84" fill="#5b23d4" stroke-width="4"/>

    <line x1="50" y1="56" x2="124" y2="74" stroke-width="4"/>
    <line x1="124" y1="74" x2="198" y2="56" stroke-width="4"/>

    <rect x="46" y="69" width="4.5" height="10" rx="1.5" fill="#5b23d4" stroke-width="2.5" transform="rotate(18 48.25 74)"/>
    <rect x="92" y="80" width="4.5" height="9" rx="1.5" fill="#5b23d4" stroke-width="2.5" transform="rotate(10 94.25 84.5)"/>
    <rect x="140" y="91" width="4.5" height="9" rx="1.5" fill="#5b23d4" stroke-width="2.5" transform="rotate(10 142.25 95.5)"/>
    <rect x="194" y="67" width="4.5" height="10" rx="1.5" fill="#5b23d4" stroke-width="2.5" transform="rotate(18 196.25 72)"/>
  </g>
</svg>
