<svg xmlns="http://www.w3.org/2000/svg" viewBox="0 0 252 116">
  <g fill="none" stroke="#5b23d4" stroke-linejoin="round" stroke-linecap="round">
    <polygon points="44,54 126,74 208,54 126,34" fill="#ffffff" stroke-width="4"/>
    <polygon points="44,54 44,68 126,88 126,74" fill="#3fded7" stroke-width="4"/>
    <polygon points="126,74 126,88 208,68 208,54" fill="#2fd0c8" stroke-width="4"/>

    <polygon points="40,32 126,52 212,32 126,12" fill="#4be5de" stroke-width="4"/>
    <polygon points="40,32 40,46 126,66 126,52" fill="#39d7d0" stroke-width="4"/>
    <polygon points="126,52 126,66 212,46 212,32" fill="#2dcac3" stroke-width="4"/>

    <polygon points="28,30 44,34 44,72 28,68" fill="#6b30e8" stroke-width="4"/>
    <polygon points="44,34 58,30 58,68 44,72" fill="#4f20bc" stroke-width="4"/>
    <polygon points="194,30 208,34 208,72 194,68" fill="#6b30e8" stroke-width="4"/>
    <polygon points="208,34 224,30 224,68 208,72" fill="#4f20bc" stroke-width="4"/>

    <polygon points="52,38 90,47 90,66 52,57" fill="#ffffff" stroke-width="3.5"/>
    <polygon points="92,48 130,57 130,76 92,67" fill="#ffffff" stroke-width="3.5"/>
    <polygon points="132,58 170,67 170,86 132,77" fill="#ffffff" stroke-width="3.5"/>

    <polygon points="58,18 94,27 94,42 58,33" fill="#3fded7" stroke-width="3.5"/>
    <polygon points="96,27 132,36 132,51 96,42" fill="#3fded7" stroke-width="3.5"/>
    <polygon points="134,36 170,45 170,60 134,51" fill="#3fded7" stroke-width="3.5"/>

    <line x1="90" y1="47" x2="90" y2="66" stroke-width="3.5"/>
    <line x1="130" y1="57" x2="130" y2="76" stroke-width="3.5"/>
    <line x1="94" y1="27" x2="94" y2="42" stroke-width="3.5"/>
    <line x1="132" y1="36" x2="132" y2="51" stroke-width="3.5"/>

    <line x1="44" y1="54" x2="126" y2="74" stroke-width="4"/>
    <line x1="126" y1="74" x2="208" y2="54" stroke-width="4"/>

    <rect x="42" y="70" width="5" height="12" rx="1.6" fill="#5b23d4" stroke-width="2.5" transform="rotate(18 44.5 76)"/>
    <rect x="120" y="88" width="5" height="11" rx="1.6" fill="#5b23d4" stroke-width="2.5" transform="rotate(8 122.5 93.5)"/>
    <rect x="198" y="68" width="5" height="12" rx="1.6" fill="#5b23d4" stroke-width="2.5" transform="rotate(18 200.5 74)"/>
  </g>
</svg>
