<svg xmlns="http://www.w3.org/2000/svg" viewBox="0 0 360 130">
  <polygon points="180,54 308,86 180,120 52,88" fill="#cf6f39" />
  <polygon points="52,88 180,120 180,126 52,94" fill="#ab5529" />
  <polygon points="308,86 180,120 180,126 308,92" fill="#bc6331" />

  <polygon points="180,20 296,49 180,80 64,51" fill="#9a4222" />
  <polygon points="64,51 180,80 180,92 64,63" fill="#7c3119" />
  <polygon points="296,49 180,80 180,92 296,61" fill="#8c3920" />

  <polygon points="92,36 128,45 92,72 56,63" fill="#a54e28" />
  <polygon points="56,63 92,72 92,100 56,91" fill="#8a3a1d" />
  <polygon points="128,45 92,72 92,100 128,73" fill="#964424" />

  <polygon points="268,36 304,45 268,72 232,63" fill="#a54e28" />
  <polygon points="232,63 268,72 268,100 232,91" fill="#8a3a1d" />
  <polygon points="304,45 268,72 268,100 304,73" fill="#964424" />

  <polygon points="180,46 276,70 180,96 84,72" fill="#efb27f" />
  <polygon points="84,72 180,96 180,110 84,86" fill="#d07c47" />
  <polygon points="276,70 180,96 180,110 276,84" fill="#df935d" />

  <polygon points="180,34 266,56 180,78 94,56" fill="#f6caa6" />
</svg>
