<svg xmlns="http://www.w3.org/2000/svg" viewBox="0 0 176 96">
  <g stroke="#5627c8" stroke-width="3" stroke-linejoin="miter" stroke-linecap="square">
    <polygon points="28,46 88,61 148,46 88,31" fill="#31d8d2"/>
    <polygon points="28,46 28,60 88,75 88,61" fill="#22bcb7"/>
    <polygon points="88,61 88,75 148,60 148,46" fill="#1da7a2"/>

    <polygon points="20,26 88,43 156,26 88,9" fill="#31d8d2"/>
    <polygon points="20,26 20,38 88,55 88,43" fill="#22bcb7"/>
    <polygon points="88,43 88,55 156,38 156,26" fill="#1da7a2"/>

    <polygon points="30,28 56,34 56,48 30,42" fill="#ffffff"/>
    <polygon points="58,35 84,41 84,55 58,49" fill="#ffffff"/>
    <polygon points="86,42 112,48 112,62 86,56" fill="#ffffff"/>

    <polygon points="22,20 46,26 46,42 22,36" fill="#31d8d2"/>
    <polygon points="48,27 74,33 74,49 48,43" fill="#31d8d2"/>
    <polygon points="76,34 102,40 102,56 76,50" fill="#31d8d2"/>

    <polygon points="10,22 20,24 20,56 10,54" fill="#5627c8"/>
    <polygon points="20,24 34,20 34,52 20,56" fill="#31d8d2"/>
    <polygon points="20,24 44,30 44,40 20,34" fill="#ffffff"/>

    <polygon points="112,40 136,46 136,56 112,50" fill="#ffffff"/>
    <polygon points="136,46 146,44 146,74 136,76" fill="#31d8d2"/>
    <polygon points="146,44 166,40 166,70 146,74" fill="#5627c8"/>

    <rect x="26" y="60" width="4" height="8" fill="#3c2a1f" stroke="#3c2a1f" transform="rotate(18 28 64)"/>
    <rect x="70" y="71" width="4" height="8" fill="#3c2a1f" stroke="#3c2a1f" transform="rotate(10 72 75)"/>
    <rect x="114" y="82" width="4" height="8" fill="#3c2a1f" stroke="#3c2a1f" transform="rotate(10 116 86)"/>
    <rect x="146" y="58" width="4" height="8" fill="#3c2a1f" stroke="#3c2a1f" transform="rotate(18 148 62)"/>
  </g>
</svg>
