<svg xmlns="http://www.w3.org/2000/svg" viewBox="0 0 360 130">
  <polygon points="180,52 312,86 180,122 48,88" fill="#cf6f39" />
  <polygon points="48,88 180,122 180,128 48,94" fill="#ab5529" />
  <polygon points="312,86 180,122 180,128 312,92" fill="#bc6331" />

  <polygon points="180,18 302,49 180,80 58,49" fill="#9a4222" />
  <polygon points="58,49 180,80 180,92 58,61" fill="#7c3119" />
  <polygon points="302,49 180,80 180,92 302,61" fill="#8c3920" />

  <polygon points="82,34 116,43 82,72 48,63" fill="#a54e28" />
  <polygon points="48,63 82,72 82,100 48,91" fill="#8a3a1d" />
  <polygon points="116,43 82,72 82,100 116,71" fill="#964424" />

  <polygon points="278,34 312,43 278,72 244,63" fill="#a54e28" />
  <polygon points="244,63 278,72 278,100 244,91" fill="#8a3a1d" />
  <polygon points="312,43 278,72 278,100 312,71" fill="#964424" />

  <polygon points="180,44 278,69 180,96 82,71" fill="#efb27f" />
  <polygon points="82,71 180,96 180,110 82,85" fill="#d07c47" />
  <polygon points="278,69 180,96 180,110 278,83" fill="#df935d" />

  <polygon points="180,32 268,54 180,76 92,54" fill="#f6caa6" />
</svg>
