<svg xmlns="http://www.w3.org/2000/svg" viewBox="0 0 360 160">
  <polygon points="180,72 316,106 180,142 44,108" fill="#f1f5f8" />
  <polygon points="44,108 180,142 180,150 44,116" fill="#d8dde2" />
  <polygon points="316,106 180,142 180,150 316,114" fill="#e4e9ee" />

  <polygon points="180,26 302,56 180,88 58,58" fill="#f8fbfd" />
  <polygon points="58,58 180,88 180,102 58,72" fill="#d7dde3" />
  <polygon points="302,56 180,88 180,102 302,70" fill="#e6ebef" />

  <polygon points="84,42 124,52 84,84 44,74" fill="#f7fafc" />
  <polygon points="44,74 84,84 84,116 44,106" fill="#d3d9df" />
  <polygon points="124,52 84,84 84,116 124,84" fill="#e1e6eb" />

  <polygon points="276,42 316,52 276,84 236,74" fill="#f7fafc" />
  <polygon points="236,74 276,84 276,116 236,106" fill="#d3d9df" />
  <polygon points="316,52 276,84 276,116 316,84" fill="#e1e6eb" />

  <polygon points="180,58 288,85 180,114 72,87" fill="#f7fbfe" />
  <polygon points="72,87 180,114 180,126 72,99" fill="#dde3e8" />
  <polygon points="288,85 180,114 180,126 288,97" fill="#e9eef2" />

  <polygon points="180,56 218,65 180,96 142,87" fill="#ffffff" />
  <polygon points="142,60 180,69 142,100 104,91" fill="#ffffff" />
  <polygon points="218,60 256,69 218,100 180,91" fill="#ffffff" />

  <polygon points="118,36 146,43 118,74 90,67" fill="#d9c0a0" />
  <polygon points="214,60 242,67 214,98 186,91" fill="#d9c0a0" />

  <rect x="86" y="117" width="10" height="20" rx="3" fill="#3a4350" transform="rotate(24 91 127)" />
  <rect x="174" y="138" width="10" height="18" rx="3" fill="#3a4350" transform="rotate(12 179 147)" />
  <rect x="270" y="115" width="10" height="20" rx="3" fill="#3a4350" transform="rotate(24 275 125)" />
</svg>
