<svg xmlns="http://www.w3.org/2000/svg" viewBox="0 0 96 64">
  <g fill="none" stroke="#5b23d4" stroke-width="2" stroke-linejoin="miter" shape-rendering="crispEdges">
    <polygon points="12,30 48,39 84,30 48,21" fill="#2fd0c8"/>
    <polygon points="12,30 12,38 48,47 48,39" fill="#25b7b1"/>
    <polygon points="48,39 48,47 84,38 84,30" fill="#1ea39e"/>

    <polygon points="12,18 48,27 84,18 48,9" fill="#2fd0c8"/>
    <polygon points="12,18 12,24 48,33 48,27" fill="#25b7b1"/>
    <polygon points="48,27 48,33 84,24 84,18" fill="#1ea39e"/>

    <polygon points="16,20 28,23 28,31 16,28" fill="#ffffff"/>
    <polygon points="30,24 42,27 42,35 30,32" fill="#ffffff"/>
    <polygon points="44,27 56,30 56,38 44,35" fill="#ffffff"/>

    <polygon points="8,16 12,17 12,40 8,39" fill="#5b23d4"/>
    <polygon points="12,17 18,15 18,38 12,40" fill="#2fd0c8"/>
    <polygon points="12,17 22,20 22,25 12,22" fill="#ffffff"/>

    <polygon points="56,30 66,33 66,38 56,35" fill="#ffffff"/>
    <polygon points="66,33 72,31 72,52 66,53" fill="#2fd0c8"/>
    <polygon points="72,31 80,29 80,50 72,52" fill="#5b23d4"/>

    <rect x="14" y="39" width="2.5" height="6" fill="#2a1f14" stroke="#2a1f14"/>
    <rect x="39" y="45" width="2.5" height="5" fill="#2a1f14" stroke="#2a1f14"/>
    <rect x="64" y="51" width="2.5" height="5" fill="#2a1f14" stroke="#2a1f14"/>
    <rect x="76" y="37" width="2.5" height="6" fill="#2a1f14" stroke="#2a1f14"/>
  </g>
</svg>
