<svg xmlns="http://www.w3.org/2000/svg" viewBox="0 0 360 160">
  <polygon points="138,86 244,112 202,144 96,118" fill="#f5f7fa" />
  <polygon points="96,118 202,144 202,150 96,124" fill="#d9dee5" />
  <polygon points="244,112 202,144 202,150 244,118" fill="#e7ebf0" />

  <polygon points="120,64 228,90 244,112 138,86" fill="#ffffff" />
  <polygon points="138,86 244,112 244,120 138,94" fill="#dde3ea" />

  <polygon points="108,74 144,82 132,106 96,98" fill="#edf1f5" />
  <polygon points="148,84 184,92 172,116 136,108" fill="#edf1f5" />
  <polygon points="188,94 224,102 212,126 176,118" fill="#edf1f5" />

  <polygon points="122,60 160,70 148,92 110,82" fill="#d8c0a2" />
  <polygon points="182,74 220,84 208,106 170,96" fill="#d8c0a2" />

  <polygon points="96,78 120,64 138,86 114,100" fill="#f8fbfd" />
  <polygon points="228,90 252,76 270,98 246,112" fill="#f8fbfd" />

  <polygon points="108,58 228,86 236,94 116,66" fill="#f9fbfd" />
  <polygon points="116,66 236,94 228,102 108,74" fill="#e4e9ef" />

  <rect x="120" y="120" width="8" height="18" rx="3" fill="#3e4754" transform="rotate(28 124 129)" />
  <rect x="194" y="138" width="8" height="16" rx="3" fill="#3e4754" transform="rotate(18 198 146)" />
</svg>
