<svg xmlns="http://www.w3.org/2000/svg" viewBox="0 0 64 64">
  <g shape-rendering="crispEdges" fill="none" stroke="#5124c1" stroke-width="1.5" stroke-linejoin="miter">
    <polygon points="10,30 27,34 47,29 30,25" fill="#36ddd6"/>
    <polygon points="10,30 10,39 27,43 27,34" fill="#25c6bf"/>
    <polygon points="27,34 27,43 47,38 47,29" fill="#1faea8"/>

    <polygon points="15,20 29,24 47,20 33,16" fill="#36ddd6"/>
    <polygon points="15,20 15,28 29,32 29,24" fill="#25c6bf"/>
    <polygon points="29,24 29,32 47,28 47,20" fill="#1faea8"/>

    <polygon points="13,24 20,26 20,31 13,29" fill="#ffffff"/>
    <polygon points="20,26 27,28 27,33 20,31" fill="#ffffff"/>
    <polygon points="27,28 34,30 34,35 27,33" fill="#ffffff"/>

    <polygon points="8,20 15,22 15,36 8,34" fill="#5124c1"/>
    <polygon points="15,22 19,20 19,34 15,36" fill="#36ddd6"/>
    <polygon points="15,22 21,24 21,28 15,26" fill="#ffffff"/>

    <polygon points="34,30 41,32 41,36 34,34" fill="#ffffff"/>
    <polygon points="41,32 45,31 45,44 41,45" fill="#36ddd6"/>
    <polygon points="45,31 51,29 51,42 45,44" fill="#5124c1"/>

    <rect x="12" y="39" width="2" height="5" fill="#2d2218" stroke="#2d2218"/>
    <rect x="24" y="42" width="2" height="5" fill="#2d2218" stroke="#2d2218"/>
    <rect x="36" y="45" width="2" height="4" fill="#2d2218" stroke="#2d2218"/>
    <rect x="46" y="38" width="2" height="5" fill="#2d2218" stroke="#2d2218"/>
  </g>
</svg>
