<svg xmlns="http://www.w3.org/2000/svg" viewBox="0 0 320 180">
  <polygon points="154,34 220,50 164,126 98,110" fill="#f7fafc" />
  <polygon points="98,110 164,126 164,136 98,120" fill="#d8dee5" />
  <polygon points="220,50 164,126 164,136 220,60" fill="#e6ebf0" />

  <polygon points="138,24 204,40 154,92 88,76" fill="#ffffff" />
  <polygon points="88,76 154,92 154,102 88,86" fill="#e3e8ee" />
  <polygon points="204,40 154,92 154,102 204,50" fill="#f0f3f6" />

  <polygon points="122,46 152,54 128,84 98,76" fill="#f1f5f8" />
  <polygon points="100,80 130,88 108,116 78,108" fill="#f1f5f8" />
  <polygon points="144,58 174,66 150,96 120,88" fill="#f1f5f8" />

  <polygon points="132,30 156,36 140,58 116,52" fill="#d5c1a0" />
  <polygon points="172,40 196,46 180,68 156,62" fill="#d5c1a0" />

  <polygon points="108,34 138,24 154,48 124,58" fill="#f8fbfd" />
  <polygon points="188,106 218,96 234,120 204,130" fill="#f8fbfd" />

  <polygon points="136,22 212,40 228,58 152,40" fill="#fdfefe" />
  <polygon points="152,40 228,58 214,72 138,54" fill="#eef2f6" />

  <rect x="100" y="118" width="8" height="18" rx="3" fill="#8a623f" transform="rotate(28 104 127)" />
  <rect x="156" y="134" width="8" height="16" rx="3" fill="#7b5638" transform="rotate(16 160 142)" />
</svg>
