<svg xmlns="http://www.w3.org/2000/svg" viewBox="0 0 320 138">
  <polygon points="160,58 286,89 160,122 34,91" fill="#cb6c39" />
  <polygon points="34,91 160,122 160,128 34,97" fill="#a54f29" />
  <polygon points="286,89 160,122 160,128 286,95" fill="#b95d31" />

  <polygon points="160,24 274,52 160,82 46,54" fill="#8d3e22" />
  <polygon points="46,54 160,82 160,94 46,66" fill="#6f2f18" />
  <polygon points="274,52 160,82 160,94 274,64" fill="#7e391d" />

  <polygon points="72,40 112,50 72,77 32,67" fill="#9d4a28" />
  <polygon points="32,67 72,77 72,102 32,92" fill="#7f361c" />
  <polygon points="112,50 72,77 72,102 112,75" fill="#8e4124" />

  <polygon points="248,40 288,50 248,77 208,67" fill="#9d4a28" />
  <polygon points="208,67 248,77 248,102 208,92" fill="#7f361c" />
  <polygon points="288,50 248,77 248,102 288,75" fill="#8e4124" />

  <polygon points="160,46 258,70 160,96 62,72" fill="#efb78a" />
  <polygon points="62,72 160,96 160,109 62,85" fill="#cf8450" />
  <polygon points="258,70 160,96 160,109 258,83" fill="#dd9965" />

  <polygon points="160,36 244,57 160,78 76,57" fill="#f7d8bd" />
</svg>
